<?xml version="1.0" standalone="no"?><!DOCTYPE svg PUBLIC "-//W3C//DTD SVG 1.1//EN" "http://www.w3.org/Graphics/SVG/1.1/DTD/svg11.dtd"><svg t="1733540883794" class="icon" viewBox="0 0 1638 1024" version="1.1" xmlns="http://www.w3.org/2000/svg" p-id="7767" xmlns:xlink="http://www.w3.org/1999/xlink" width="102.375" height="64"><path d="M496.027648 293.5808H351.541248v-32.0512a149.504 149.504 0 0 0-23.4496-84.1728c-15.5648-23.552-41.7792-35.4304-78.6432-35.4304a92.2624 92.2624 0 0 0-48.128 11.1616 94.208 94.208 0 0 0-29.7984 27.7504 116.3264 116.3264 0 0 0-15.6672 41.0624 263.168 263.168 0 0 0-4.1984 48.0256c0 19.456 0.7168 35.7376 2.048 48.64a91.136 91.136 0 0 0 10.752 34.816 77.824 77.824 0 0 0 24.7808 26.4192c10.8544 7.4752 25.7024 14.848 44.6464 22.3232l110.592 43.008c32.0512 12.1856 58.0608 26.3168 77.824 42.496 19.8656 16.2816 35.5328 35.0208 46.7968 56.32 10.4448 22.3232 17.5104 47.616 21.2992 75.8784 3.7888 28.2624 5.632 60.5184 5.632 96.6656 0 41.7792-4.1984 80.4864-12.6976 116.224a242.5856 242.5856 0 0 1-41.1648 91.136 203.3664 203.3664 0 0 1-77.824 61.2352c-32.256 14.7456-71.4752 22.2208-117.76 22.2208-34.9184 0-67.584-6.0416-97.792-18.1248a233.0624 233.0624 0 0 1-77.9264-50.0736 243.712 243.712 0 0 1-51.712-74.4448A222.4128 222.4128 0 0 1 0.002048 772.1984v-52.9408h144.5888v44.544c0 26.0096 7.7824 49.4592 23.3472 70.2464 15.5648 20.8896 41.7792 31.3344 78.6432 31.3344 24.576 0 43.7248-3.4816 57.344-10.4448a75.776 75.776 0 0 0 31.9488-29.9008c7.5776-13.0048 12.0832-28.4672 13.5168-46.592a780.3904 780.3904 0 0 0-0.7168-124.5184 108.544 108.544 0 0 0-11.264-40.3456 79.0528 79.0528 0 0 0-26.3168-25.088 338.5344 338.5344 0 0 0-43.2128-20.8896l-103.424-41.6768C101.992448 500.736 60.213248 467.6608 38.914048 426.3936 17.717248 385.1264 7.067648 333.4144 7.067648 271.36c0-37.0688 5.2224-72.2944 15.5648-105.6768 10.4448-33.3824 26.0096-62.1568 46.7968-86.3232 19.8656-24.064 45.056-43.3152 75.776-57.6512C176.027648 7.168 212.686848 0 255.182848 0c35.9424 0 68.8128 6.4512 98.5088 19.456 29.696 13.0048 55.5008 30.208 77.312 51.5072 43.4176 44.544 65.1264 95.5392 65.1264 152.9856v69.632z m243.712 471.6544c0 34.304 9.728 59.5968 29.184 75.776 19.3536 16.2816 42.2912 24.3712 68.608 24.3712 13.312 0 23.7568-1.8432 31.232-5.5296l-65.1264-51.5072 73.728-86.2208 58.0608 45.8752V242.0736c0-34.304-9.728-59.5968-29.0816-75.776a103.6288 103.6288 0 0 0-68.7104-24.3712c-26.4192 0-49.3568 8.192-68.7104 24.3712-19.456 16.1792-29.0816 41.472-29.0816 75.776v523.1616z m-144.384-523.1616c0-39.936 6.9632-75.1616 21.1968-105.6768 14.1312-30.72 33.0752-56.1152 56.6272-76.5952A240.64 240.64 0 0 1 750.594048 15.36C779.266048 5.12 808.347648 0 837.531648 0c29.3888 0 58.368 5.12 87.2448 15.36 28.8768 10.24 55.0912 24.9856 78.6432 44.4416 22.7328 20.48 41.1648 45.9776 55.296 76.5952 14.2336 30.5152 21.2992 65.8432 21.2992 105.6768v523.1616c0 38.912-7.168 72.704-21.2992 101.5808l89.2928 70.9632-73.728 86.2208-84.992-68.1984a237.568 237.568 0 0 1-151.6544 51.5072c-29.2864 0-58.368-5.12-87.1424-15.36-28.8768-10.24-54.5792-25.4976-77.312-45.8752-23.552-19.456-42.496-44.032-56.6272-73.728-14.2336-29.696-21.2992-65.4336-21.2992-107.1104V242.0736z m612.1472 756.8384V8.3968h144.5888V857.088H1638.402048v141.824h-430.8992z" fill="#3DC6B2" p-id="7768"></path></svg>