<?xml version="1.0" standalone="no"?><!DOCTYPE svg PUBLIC "-//W3C//DTD SVG 1.1//EN" "http://www.w3.org/Graphics/SVG/1.1/DTD/svg11.dtd"><svg t="1733296380865" class="icon" viewBox="0 0 1024 1024" version="1.1" xmlns="http://www.w3.org/2000/svg" p-id="16852" xmlns:xlink="http://www.w3.org/1999/xlink" width="64" height="64"><path d="M837.643148 1.193988c-55.305393 58.10221-259.952608 125.750663-360.738462 167.535985C384.875685 206.88099 120.949248 345.232184 128.851636 611.39664c7.906631 266.174359 151.876923 320.717241 129.498143 411.243855 0 0 47.446861-25.854642 102.690009-54.044916 184.240495-94.015208 247.552962-57.744297 366.00389-159.436958C846.186384 706.880283 970.605836 588.925906 837.637489 1.195402h0.005659z m-23.701503 591.794871c-50.027233 175.635013-209.256233 214.99275-321.977719 253.244209-49.059593 16.650752-97.069496 42.317241-133.388506 64.239081 5.508753-63.609549 48.116004-146.208311 147.28771-176.971884 95.412909-29.607781 151.221927-86.428294 166.418391-103.575597-31.190805 27.910168-193.987622 73.369408-213.808665 65.744298-21.070203-8.104686-9.963572-104.74695 65.82069-116.197348 110.648983-16.711583 185.056764-92.378426 185.056763-92.378426s-199.533156 81.568877-185.056763 41.029885c28.734925-80.403183 166.622104-220.577896 166.622104-220.577896-102.685765 33.77542-286.422635 305.701857-308.802829 325.971353-22.387268 20.270911-34.984969-155.719187-54.204775-192.318302-36.324668-69.174889 21.285234 250.413439 19.969584 311.212024-0.987445 45.667197-39.118656 134.029355-58.028647 175.178073-15.390274-37.923254-59.532449-51.912997-94.688594-199.49496-79.868435-335.250221 175.100265-445.863837 326.503271-508.020513 151.403006-62.148187 281.741468-124.306278 281.741468-124.306278s60.565164 321.568877 10.536517 497.222281m-137.400531 31.919364s-1.425995 1.816446-4.261008 5.016445c1.952255-1.745712 3.409372-3.424934 4.261008-5.016445" p-id="16853" fill="#198320"></path></svg>