<?xml version="1.0" standalone="no"?><!DOCTYPE svg PUBLIC "-//W3C//DTD SVG 1.1//EN" "http://www.w3.org/Graphics/SVG/1.1/DTD/svg11.dtd"><svg t="1733294764672" class="icon" viewBox="0 0 1150 1024" version="1.1" xmlns="http://www.w3.org/2000/svg" p-id="10245" xmlns:xlink="http://www.w3.org/1999/xlink" width="71.875" height="64"><path d="M1148.065099 153.692586c-3.703436 12.962025-11.110307 22.220615-24.072333 27.775769-5.555154 1.851718-12.962025 3.703436-18.517179 3.703436-253.685353 0-507.370705 0-759.20434 0-27.775769 0-44.44123-16.665461-44.44123-44.44123 0-31.479204 0-62.958409 0-94.437613 0-22.220615 11.110307-40.737794 35.18264-44.44123 0 0 0 0 0-1.851718 259.240506 0 518.481013 0 777.721519 0 1.851718 1.851718 5.555154 1.851718 7.406872 3.703436 12.962025 5.555154 20.368897 14.813743 25.924051 27.775769C1148.065099 72.216998 1148.065099 112.954792 1148.065099 153.692586z" p-id="10246" fill="#1296db"></path><path d="M1148.065099 572.180832c-5.555154 9.25859-9.25859 20.368897-18.517179 24.072333-5.555154 1.851718-12.962025 5.555154-18.517179 5.555154-257.388788 0-514.777577 0-772.166365 0-16.665461 0-33.330922-14.813743-35.18264-31.479204-1.851718-18.517179-1.851718-37.034358-1.851718-55.551537s0-37.034358 0-53.699819c0-18.517179 11.110307-37.034358 31.479204-42.589512 3.703436 0 7.406872-1.851718 9.25859-1.851718 255.537071 0 509.222423 0 764.759494 0 20.368897 0 33.330922 9.25859 40.737794 27.775769l1.851718 1.851718C1148.065099 490.705244 1148.065099 531.443038 1148.065099 572.180832z" p-id="10247" fill="#1296db"></path><path d="M1148.065099 992.520796c-5.555154 9.25859-7.406872 18.517179-18.517179 24.072333-7.406872 3.703436-14.813743 7.406872-22.220615 7.406872-255.537071 0-511.074141 0-766.611212 0-22.220615 0-40.737794-16.665461-40.737794-42.589512 0-33.330922 0-66.661844 0-99.992767 0-22.220615 16.665461-40.737794 40.737794-40.737794 255.537071 0 509.222423 0 764.759494 0 16.665461 0 35.18264 12.962025 38.886076 27.775769l1.851718 1.851718C1148.065099 909.19349 1148.065099 949.931284 1148.065099 992.520796z" p-id="10248" fill="#1296db"></path><path d="M174.061483 0c1.851718 1.851718 5.555154 1.851718 7.406872 3.703436 20.368897 5.555154 33.330922 25.924051 33.330922 46.292948 0 29.627486 0 59.254973 0 88.882459 0 22.220615-18.517179 44.44123-40.737794 46.292948-12.962025 1.851718-25.924051 1.851718-38.886076 1.851718-27.775769 0-55.551537 0-83.327306 0-20.368897 0-37.034358-7.406872-46.292948-24.072333-3.703436-5.555154-5.555154-12.962025-5.555154-20.368897 0-31.479204 0-61.106691 0-92.585895 0-22.220615 16.665461-42.589512 38.886076-46.292948 1.851718 0 1.851718-1.851718 3.703436-1.851718C87.030741 0 129.620253 0 174.061483 0z" p-id="10249" fill="#1296db"></path><path d="M107.399638 603.660036c-20.368897 0-40.737794 0-62.958409 0s-44.44123-22.220615-44.44123-44.44123c0-31.479204 0-62.958409 0-92.585895 0-24.072333 22.220615-46.292948 46.292948-46.292948 40.737794 0 79.62387 0 120.361664 0 25.924051 0 49.996383 24.072333 48.144665 48.144665-1.851718 29.627486-1.851718 57.403255 0 87.030741 1.851718 25.924051-24.072333 49.996383-49.996383 49.996383C146.285714 601.808318 127.768535 603.660036 107.399638 603.660036z" p-id="10250" fill="#1296db"></path><path d="M107.399638 838.82821c20.368897 0 38.886076 1.851718 59.254973 0 24.072333-1.851718 49.996383 24.072333 48.144665 48.144665-1.851718 29.627486 0 59.254973 0 88.882459 0 20.368897-14.813743 40.737794-35.18264 44.44123-5.555154 1.851718-9.25859 1.851718-14.813743 1.851718-37.034358 0-75.920434 0-112.954792 0-27.775769 0-51.848101-22.220615-49.996383-49.996383 1.851718-29.627486 0-59.254973 0-88.882459 0-22.220615 22.220615-44.44123 44.44123-44.44123C66.661844 838.82821 87.030741 838.82821 107.399638 838.82821z" p-id="10251" fill="#1296db"></path></svg>