<?xml version="1.0" standalone="no"?><!DOCTYPE svg PUBLIC "-//W3C//DTD SVG 1.1//EN"
  "http://www.w3.org/Graphics/SVG/1.1/DTD/svg11.dtd">
<svg t="1701586807754" class="icon" viewBox="0 0 1024 1024" version="1.1" xmlns="http://www.w3.org/2000/svg"
     p-id="19399" xmlns:xlink="http://www.w3.org/1999/xlink" width="32" height="32">
  <path
    d="M864 672h32v224h-195.168c-62.464 20.16-138.624 32-220.832 32-188.352 0-345.024-62.144-377.728-144.16H96V245.12h0.224A55.168 55.168 0 0 1 96 240C96 160.48 267.936 96 480 96s384 64.48 384 144c0 1.728-0.096 3.424-0.224 5.12H864V672z"
    fill="#FFFFFF" p-id="19400"></path>
  <path
    d="M864 608h-32v-118.656C757.76 543.232 626.56 576 480 576s-277.76-32.768-352-86.656V608c0 35.52 49.6 71.68 128 96.48v33.504c-55.68-16.704-100.192-39.456-128-65.92v104.8l4.448 9.12c14.816 30.4 60 58.4 123.552 78.528v34.4C175.168 875.84 115.84 840.704 96 800V245.696l0.32 0.096C96.096 243.84 96 241.92 96 240 96 160.48 267.936 96 480 96s384 64.48 384 144c0 2.112-0.128 4.224-0.352 6.336L864 246.208V608z m-31.968-160H832V297.632C772.704 348.48 637.44 384 480 384S187.296 348.48 128 297.632V448h-0.032c59.232 56.512 194.56 96 352.032 96 157.44 0 292.8-39.488 352.032-96zM480 352c195.456 0 352-58.72 352-112S675.456 128 480 128 128 186.72 128 240 284.544 352 480 352z"
    fill="#5D6D7E" p-id="19401"></path>
  <path
    d="M320 640h576a32 32 0 0 1 32 32v224a32 32 0 0 1-32 32H320a32 32 0 0 1-32-32v-224a32 32 0 0 1 32-32z m32 32v182.784h63.488c28.672 0 50.688-8.448 66.048-25.088 14.592-15.872 22.016-38.144 22.016-66.304 0-28.672-6.912-50.944-20.48-66.304-14.848-16.896-36.608-25.088-65.536-25.088H352z m20.992 18.176h41.216c24.064 0 41.472 6.144 52.736 18.688 10.496 11.776 15.872 29.952 15.872 54.528 0 23.808-5.888 41.984-17.152 54.272-12.032 12.544-29.952 18.944-53.76 18.944h-38.912v-146.432zM532.736 672v182.784h20.992v-145.408h0.768l63.232 145.408h18.944l63.232-145.408h0.768v145.408h20.992V672h-26.112l-67.84 155.904h-0.768L558.848 672h-26.112z m276.224 51.968v55.808h-56.064v17.408h56.064v56.064h17.408v-56.064h55.808v-17.408h-55.808v-55.808h-17.408z"
    fill="#27A2DF" p-id="19402"></path>
</svg>
