<?xml version="1.0" encoding="utf-8"?>
<!-- Generator: Adobe Illustrator 27.0.0, SVG Export Plug-In . SVG Version: 6.00 Build 0)  -->
<svg version="1.1" id="图层_1" xmlns="http://www.w3.org/2000/svg" xmlns:xlink="http://www.w3.org/1999/xlink" x="0px" y="0px"
	 viewBox="0 0 534 480" style="enable-background:new 0 0 534 480;" xml:space="preserve">
<style type="text/css">
	.st0{fill:url(#SVGID_1_);}
	.st1{fill:url(#SVGID_00000122721016560505329630000015744547059752445579_);}
	.st2{fill:url(#SVGID_00000039830235738971521120000001890515117832840351_);}
</style>
<g transform="matrix(2.66 0 0 2.66 305.09 162.53)">
	
		<linearGradient id="SVGID_1_" gradientUnits="userSpaceOnUse" x1="-49.4834" y1="4.9253" x2="-49.4834" y2="112.0753" gradientTransform="matrix(7.0756 0 0 7.0756 339.5992 -86.3892)">
		<stop  offset="0" style="stop-color:#28569F"/>
		<stop  offset="1" style="stop-color:#34B5B5"/>
	</linearGradient>
	<path class="st0" d="M-67.5,28.9c0-28.8,20.3-53.6,48.5-59.3c28.2-5.7,56.5,9.2,67.8,35.7L76.5-3C58.8-49.3,7-72.5-39.4-54.9
		s-69.8,69.3-52.4,115.7l27.5-12.5C-66.4,42-67.5,35.5-67.5,28.9z"/>
</g>
<g transform="matrix(2.66 0 0 2.66 325.18 376.23)">
	
		<linearGradient id="SVGID_00000026132707752288838250000015537979005203608456_" gradientUnits="userSpaceOnUse" x1="-58.8047" y1="-31.1963" x2="-58.8047" y2="36.8337" gradientTransform="matrix(7.0756 0 0 7.0756 405.5786 188.1028)">
		<stop  offset="0" style="stop-color:#73AF42"/>
		<stop  offset="0.14" style="stop-color:#7EB042"/>
		<stop  offset="0.68" style="stop-color:#A1B541"/>
		<stop  offset="0.96" style="stop-color:#AFB741"/>
	</linearGradient>
	<path style="fill:url(#SVGID_00000026132707752288838250000015537979005203608456_);" d="M59.5-38.7c-13.2,0-18.4,11.4-18.4,11.4
		L41-27.6C32.2-6.9,12.7,7.2-9.6,9c-22.4,1.8-43.9-8.9-56-27.8l-29.3,9.2c18.1,34.6,56.5,53.6,95,47S68.4,0,73.9-38.6L59.5-38.7z"/>
</g>
<g transform="matrix(2.66 0 0 2.66 281.6 246.59)">
	
		<linearGradient id="SVGID_00000137129979155007235650000010769990692873848200_" gradientUnits="userSpaceOnUse" x1="-24.1155" y1="-8.5059" x2="-161.0655" y2="37.6941" gradientTransform="matrix(7.0756 0 0 7.0756 262.4359 21.6004)">
		<stop  offset="0" style="stop-color:#F2C222"/>
		<stop  offset="0.18" style="stop-color:#F1BA23"/>
		<stop  offset="0.47" style="stop-color:#EEA425"/>
		<stop  offset="0.82" style="stop-color:#E8802A"/>
		<stop  offset="1" style="stop-color:#E56A2C"/>
	</linearGradient>
	<polygon style="fill:url(#SVGID_00000137129979155007235650000010769990692873848200_);" points="84.9,-34.2 46.6,-43.5 
		-25.6,-14.2 5.7,-6.2 -105.9,43.5 62.7,-8.6 30.6,-16.2 	"/>
</g>
<g transform="matrix(2.73 0 0 2.73 151.06 432.34)">
</g>
<g transform="matrix(2.73 0 0 2.73 398.18 515.52)">
</g>
</svg>
